<?xml version="1.0" encoding="UTF-8" standalone="no"?>
<svg xmlns="http://www.w3.org/2000/svg" viewBox="0 0 512 512">
  <rect width="512" height="512" fill="#c30707" rx="64" ry="64"/>
  <g fill="#ffffff" transform="scale(0.85) translate(38, 38)">
    <path d="M300 50c-59 0-95 25-140 47-43 23-78 53-108 85l50 76c24-37 58-71 108-94 49-23 81-37 140-37 30 0 59 8 90 23 30 15 57 38 78 63l54-77c-34-33-80-59-128-72-25-9-51-14-76-14z"/>
    <path d="M355 150c-7 0-14.6 1-20 3-13.6 5-26 13-35.6 25-9.5 12-15.7 26.4-17.8 41-1.6 14-1 27 6 37 2.8 5 8 9 14 12 6 3 13.4 4 20 4 7 0 14-1 20-3 14-5 26-14 36-25 9-12 15-27 17-42 2-14 1-27-6-37-3-5-8-9-14-12-6-3-13-4-20-4z"/>
    <path d="M196 173c-67 26-119 82-159 159-13 25-24 52-31 79-8 27-12 56-13 86 0 30 4 62 14 94l97-21c-5-20-7-38-7-58 0-20 2-40 7-60 5-20 13-39 22-57 16-37 41-70 70-95z"/>
    <path d="M505 200l-10-15-20 30 25 20z"/>
    <path d="M385 385l-10-8-25 35 10 8z"/>
  </g>
  <g fill="#fff">
    <path d="M343 175c20 0 36 16 36 36 0 27-21 49-48 56-20 0-36-16-36-36 0-27 21-49 48-56z"/>
    <path d="M430 200l-90 120 70 60 90-120z"/>
    <path d="M410 380l-75-65s-10 5-25 30c-10 15-20 32-25 40l75 65s13-20 25-35c16-20 25-35 25-35z"/>
  </g>
</svg>