<?xml version="1.0" encoding="UTF-8" standalone="no"?>
<svg width="150px" height="150px" viewBox="0 0 150 150" version="1.1" xmlns="http://www.w3.org/2000/svg" xmlns:xlink="http://www.w3.org/1999/xlink">
    <defs>
        <rect id="path-1" x="0" y="0" width="150" height="150" rx="8"></rect>
    </defs>
    <g id="Page-1" stroke="none" stroke-width="1" fill="none" fill-rule="evenodd">
        <g id="image-placeholder">
            <mask id="mask-2" fill="white">
                <use xlink:href="#path-1"></use>
            </mask>
            <use id="BG" fill="#EDF2F7" xlink:href="#path-1"></use>
            <g id="camera-icon" mask="url(#mask-2)" fill="#A0AEC0">
                <g transform="translate(42.000000, 42.000000)">
                    <path d="M52,16 L36.8,16 L33.2,8 C33.1,7.7 32.9,7.4 32.7,7.1 C32.3,7 31.8,7 31.3,7 L20.7,7 C20.4,7 20.2,7 20,7 C19.5,7.3 19.1,7.6 19,8 L15,16 L4,16 C1.8,16 0,17.8 0,20 L0,56 C0,58.2 1.8,60 4,60 L52,60 C54.2,60 56,58.2 56,56 L56,20 C56,17.8 54.2,16 52,16 Z" id="icon"></path>
                </g>
            </g>
            <path d="M75,101 C63.4020203,101 54,91.5979797 54,80 C54,68.4020203 63.4020203,59 75,59 C86.5979797,59 96,68.4020203 96,80 C96,91.5979797 86.5979797,101 75,101 Z" id="circle" stroke="#A0AEC0" stroke-width="2" mask="url(#mask-2)"></path>
            <text id="Imagem-não-disponív" mask="url(#mask-2)" font-family="Arial, sans-serif" font-size="12" font-weight="bold" fill="#4A5568">
                <tspan x="33" y="125">Imagem indisponível</tspan>
            </text>
        </g>
    </g>
</svg>